<?xml version="1.0" encoding="UTF-8" standalone="no"?>
<!DOCTYPE svg PUBLIC "-//W3C//DTD SVG 20010904//EN"
              "http://www.w3.org/TR/2001/REC-SVG-20010904/DTD/svg10.dtd">

<svg xmlns="http://www.w3.org/2000/svg"
     width="2.77778in" height="7.04444in"
     viewBox="0 0 250 634">
  <path id="stroke-1"
        fill="none" stroke="black" stroke-width="1"
        d="M 176.07,76.10
           C 176.07,76.10 175.71,95.39 175.71,95.39
             175.71,95.39 181.61,147.56 181.61,147.56
             181.61,147.56 185.54,234.38 185.54,234.38
             185.54,234.38 186.79,317.27 186.79,317.27
             186.79,317.27 185.89,396.23 185.89,396.23
             185.89,396.23 183.75,421.24 183.75,421.24
             183.75,421.24 178.93,443.03 178.93,443.03
             178.93,443.03 169.82,463.75 169.82,463.75
             169.82,463.75 158.93,477.51 158.93,477.51
             158.93,477.51 150.36,482.87 150.36,482.87
             150.36,482.87 138.57,485.37 138.57,485.37
             138.57,485.37 116.43,481.44 116.43,481.44
             116.43,481.44 102.86,475.19 102.86,475.19
             102.86,475.19 88.57,463.22 88.57,463.22
             88.57,463.22 74.82,445.00 74.82,445.00
             74.82,445.00 63.39,421.06 63.39,421.06
             63.39,421.06 48.39,372.11 48.39,372.11
             48.39,372.11 49.11,360.50 49.11,360.50" />
</svg>
