<?xml version="1.0" encoding="UTF-8" standalone="no"?>
<!-- Created with Inkscape (http://www.inkscape.org/) -->

<svg
   width="10.717027mm"
   height="14.8167mm"
   viewBox="0 0 10.717027 14.8167"
   version="1.1"
   id="svg1"
   xmlns="http://www.w3.org/2000/svg"
   xmlns:svg="http://www.w3.org/2000/svg">
  <defs
     id="defs1" />
  <g
     id="layer1"
     transform="translate(-23.88388,-52.924167)">
    <path
       d="m 31.099304,66.998103 c -0.759511,-1.227337 -1.230122,-2.608029 -1.760297,-3.944277 -0.312921,-0.75969 -0.47894,-1.569558 -0.761152,-2.336964 -0.450692,-0.419985 -0.673342,0.692316 -0.872839,1.021903 -0.698097,1.663993 -0.980798,3.472042 -1.726196,5.116292 -0.144678,0.738592 -1.060139,0.846862 -1.225568,0.0496 -0.30229,-1.033356 -0.124797,-2.12755 -0.255787,-3.185468 -0.184055,-3.05573 -0.636528,-6.098831 -0.60635,-9.164797 -0.204088,-0.671281 0.549771,-1.362031 1.1042,-1.007436 0.30158,2.704504 0.277793,5.440821 0.679445,8.135039 0.04934,0.276861 0.09868,0.553723 0.148025,0.830584 0.729908,-1.600527 1.367827,-3.25106 2.274113,-4.763458 0.549766,-0.671277 1.145071,0.300275 1.288533,0.810586 0.629487,1.911341 1.137798,3.872749 1.991808,5.703067 0.150462,0.538727 0.379041,0.291257 0.368743,-0.118694 0.494059,-3.195198 0.514863,-6.452481 1.16091,-9.625113 0.163223,-0.541353 0.23389,-1.247611 0.778071,-1.550038 0.706761,-0.292024 1.023271,0.554797 0.784515,1.101335 -0.333535,1.439842 -0.419291,2.924416 -0.618067,4.386688 -0.320312,2.838082 -0.65645,5.679339 -0.876506,8.52487 -0.293467,0.508345 -1.061992,1.092545 -1.517481,0.42504 -0.13078,-0.125696 -0.249321,-0.263756 -0.35812,-0.408757 z"
       id="text1"
       style="font-size:19.7556px;font-family:'Michaela Grace';-inkscape-font-specification:'Michaela Grace, Normal';stroke-width:0.264583"
       aria-label="W" />
  </g>
</svg>
