<?xml version="1.0" encoding="UTF-8" standalone="no"?>
<!DOCTYPE svg PUBLIC "-//W3C//DTD SVG 20010904//EN"
              "http://www.w3.org/TR/2001/REC-SVG-20010904/DTD/svg10.dtd">

<svg xmlns="http://www.w3.org/2000/svg"
     width="2.77778in" height="6.76667in"
     viewBox="0 0 250 609">
  <path id="Imported Path"
        fill="none" stroke="black" stroke-width="1"
        d="M 219.11,82.71
           C 219.11,82.71 202.32,82.53 202.32,82.53
             202.32,82.53 172.32,81.11 172.32,81.11
             172.32,81.11 145.89,80.39 145.89,80.39
             145.89,80.39 139.11,80.39 139.11,80.39
             139.11,80.39 138.04,81.28 138.04,81.28M 130.00,471.62
           C 130.00,471.62 135.18,461.26 135.18,461.26
             135.18,461.26 138.04,449.83 138.04,449.83
             138.04,449.83 141.25,377.30 141.25,377.30
             141.25,377.30 141.61,215.45 141.61,215.45
             141.61,215.45 137.86,81.46 137.86,81.46M 137.86,81.28
           C 137.86,81.28 134.29,78.42 134.29,78.42
             134.29,78.42 116.43,77.71 116.43,77.71
             116.43,77.71 113.57,77.89 113.57,77.89
             113.57,77.89 101.79,77.35 101.79,77.35
             101.79,77.35 52.86,76.28 52.86,76.28
             52.86,76.28 37.86,75.39 37.86,75.39
             37.86,75.39 30.36,74.14 30.36,74.14" />
</svg>
