<?xml version="1.0" encoding="UTF-8" standalone="no"?>
<!DOCTYPE svg PUBLIC "-//W3C//DTD SVG 20010904//EN"
              "http://www.w3.org/TR/2001/REC-SVG-20010904/DTD/svg10.dtd">

<svg xmlns="http://www.w3.org/2000/svg"
     width="2.77778in" height="11.1333in"
     viewBox="0 0 250 1002">
  <path id="Imported Path"
        fill="none" stroke="black" stroke-width="1"
        d="M 78.28,797.98
           C 47.46,784.77 20.06,745.63 16.14,709.42
             13.21,685.45 15.17,678.11 23.97,674.69
             40.12,668.33 55.28,684.47 55.28,707.47
             55.28,720.68 62.13,733.89 75.34,747.10
             96.38,768.13 106.16,771.07 133.07,760.80
             146.77,755.90 150.68,749.05 150.68,732.42
             150.68,715.29 142.37,703.06 107.14,669.30
             44.52,608.64 29.35,573.90 42.07,515.68
             58.22,439.35 143.35,420.27 170.74,486.81
             181.02,512.25 177.59,546.01 164.38,546.01
             159.00,546.01 152.64,536.72 149.71,526.44
             142.86,500.51 131.60,487.79 114.97,487.79
             94.91,487.79 83.17,507.85 82.68,541.61
             82.19,577.81 98.34,606.68 136.99,637.50
             176.13,668.33 191.29,696.21 191.29,734.87
             191.29,772.05 176.13,790.64 136.99,801.40
             106.65,809.72 104.21,809.23 78.28,797.98 Z" />
</svg>
