<?xml version="1.0" encoding="UTF-8" standalone="no"?>
<!DOCTYPE svg PUBLIC "-//W3C//DTD SVG 20010904//EN"
              "http://www.w3.org/TR/2001/REC-SVG-20010904/DTD/svg10.dtd">

<svg xmlns="http://www.w3.org/2000/svg"
     width="2.77778in" height="8.4in"
     viewBox="0 0 250 756">
  <path id="Imported Path"
        fill="none" stroke="black" stroke-width="1"
        d="M 129.99,397.56
           C 117.06,398.30 105.98,403.47 91.58,416.39
             64.99,439.65 59.08,454.04 59.08,501.66
             59.08,501.66 59.08,513.11 59.08,513.11
             59.08,538.95 60.93,548.54 69.42,562.94
             76.07,576.60 84.19,583.61 91.58,583.61
             98.23,583.61 105.61,578.44 114.11,568.48
             138.48,540.42 145.86,514.58 151.77,438.17
             151.77,438.17 155.10,401.99 155.10,401.99
             155.10,401.99 142.91,399.04 142.91,399.04
             138.48,398.30 134.42,397.56 129.99,397.56 Z
           M 175.41,355.85
           C 175.41,355.85 178.36,355.85 178.36,355.85
             178.36,355.85 189.07,357.33 189.07,357.33
             189.07,357.33 187.59,456.63 187.59,456.63
             186.85,477.67 186.85,495.02 186.85,508.68
             186.85,549.65 188.33,559.25 193.50,567.74
             198.67,575.12 204.21,578.07 210.12,576.60
             224.52,572.91 230.80,584.72 219.35,596.16
             213.44,602.07 206.06,606.13 200.15,606.13
             187.96,606.13 176.88,596.16 167.65,578.07
             167.65,578.07 158.05,559.25 158.05,559.25
             158.05,559.25 144.39,576.60 144.39,576.60
             125.55,599.12 108.20,610.56 91.58,610.56
             80.13,610.56 68.69,606.13 57.98,595.42
             39.14,575.86 29.54,544.11 29.54,505.72
             29.54,505.72 29.54,489.85 29.54,489.85
             32.50,448.14 42.84,424.88 69.42,400.52
             92.69,379.48 103.03,373.94 124.82,373.94
             127.77,373.94 130.72,373.94 133.68,374.68
             133.68,374.68 145.13,374.68 145.13,374.68
             158.79,374.68 161.00,372.46 163.96,365.08
             166.17,359.17 170.24,355.85 175.41,355.85 Z" />
</svg>
