<?xml version="1.0" encoding="UTF-8" standalone="no"?>
<!DOCTYPE svg PUBLIC "-//W3C//DTD SVG 20010904//EN"
              "http://www.w3.org/TR/2001/REC-SVG-20010904/DTD/svg10.dtd">

<svg xmlns="http://www.w3.org/2000/svg"
     width="2.77778in" height="10in"
     viewBox="0 0 250 900">
  <path id="Imported Path"
        fill="none" stroke="black" stroke-width="1"
        d="M 39.98,710.60
           C 22.41,703.12 22.85,702.25 18.45,578.76
             14.06,450.88 17.57,433.30 42.18,441.65
             57.12,446.48 62.83,487.79 62.83,595.90
             62.83,679.83 63.27,682.03 77.33,675.44
             104.57,662.70 115.55,632.81 122.58,548.00
             129.17,466.70 135.33,448.68 153.78,454.83
             161.25,457.47 164.32,483.40 166.08,566.46
             167.84,633.69 171.35,677.64 176.19,681.59
             181.90,686.43 189.81,686.43 203.87,680.71
             231.11,670.17 242.97,681.15 223.20,699.17
             196.84,723.34 135.76,711.47 135.76,682.47
             135.76,678.52 123.46,682.91 108.52,693.02
             72.93,716.75 61.07,719.82 39.98,710.60 Z" />
</svg>
