<?xml version="1.0" encoding="UTF-8" standalone="no"?>
<!DOCTYPE svg PUBLIC "-//W3C//DTD SVG 20010904//EN"
              "http://www.w3.org/TR/2001/REC-SVG-20010904/DTD/svg10.dtd">

<svg xmlns="http://www.w3.org/2000/svg"
     width="2.77778in" height="9.82222in"
     viewBox="0 0 250 884">
  <path id="Imported Path"
        fill="none" stroke="black" stroke-width="1"
        d="M 126.51,461.42
           C 126.51,461.42 123.49,461.42 123.49,461.42
             104.92,461.42 92.83,469.19 82.90,486.89
             75.99,498.54 70.81,512.79 70.81,518.83
             70.81,531.35 84.63,539.12 100.60,539.12
             109.24,539.12 119.60,536.96 127.37,531.78
             143.35,521.85 151.99,501.13 151.99,485.16
             151.99,472.65 146.80,463.15 136.01,462.29
             132.56,461.42 129.97,461.42 126.51,461.42 Z
           M 123.49,432.07
           C 163.21,432.07 180.48,442.43 185.66,471.78
             186.53,476.10 186.53,480.85 186.53,485.16
             186.53,510.63 174.01,534.80 151.99,553.36
             135.15,567.61 129.10,571.06 114.85,571.06
             109.67,571.06 103.20,571.06 96.29,570.20
             96.29,570.20 65.20,567.18 65.20,567.18
             65.20,567.18 65.20,593.94 65.20,593.94
             65.20,654.80 79.45,671.63 129.97,671.63
             150.26,671.63 157.60,668.18 181.35,646.17
             195.60,632.79 210.28,622.86 214.59,622.86
             214.59,622.86 215.46,622.86 215.46,622.86
             219.78,624.58 222.80,628.47 222.80,633.65
             222.80,650.48 203.37,678.54 179.62,691.92
             163.64,701.85 142.06,706.16 120.90,706.16
             110.97,706.16 102.33,705.30 94.56,703.57
             94.56,703.57 94.56,703.57 94.56,703.57
             68.22,697.53 44.47,673.79 34.54,644.44
             31.09,631.92 27.20,598.69 27.20,569.33
             27.20,519.70 28.07,514.52 45.77,484.30
             72.11,438.55 82.04,432.07 123.49,432.07 Z" />
</svg>
