<?xml version="1.0" encoding="UTF-8" standalone="no"?>
<!DOCTYPE svg PUBLIC "-//W3C//DTD SVG 20010904//EN"
              "http://www.w3.org/TR/2001/REC-SVG-20010904/DTD/svg10.dtd">

<svg xmlns="http://www.w3.org/2000/svg"
     width="2.77778in" height="11.8556in"
     viewBox="0 0 250 1067">
  <path id="Imported Path"
        fill="none" stroke="black" stroke-width="1"
        d="M 64.06,844.01
           C 59.38,838.80 53.13,768.99 50.00,689.28
             46.88,609.57 42.19,531.42 39.58,516.31
             33.33,480.36 52.60,452.75 73.96,468.90
             82.81,475.15 88.02,490.78 88.02,510.06
             88.02,527.25 90.62,540.27 94.27,538.71
             139.06,517.87 170.31,509.53 187.50,513.18
             216.15,519.95 244.79,544.96 244.79,564.24
             244.79,585.08 221.88,591.85 202.60,576.22
             180.73,558.51 146.35,561.11 124.48,581.95
             106.77,599.15 105.73,607.48 105.73,717.41
             105.73,798.17 102.08,837.76 94.79,844.53
             81.25,856.52 75.00,856.00 64.06,844.01 Z" />
</svg>
