<?xml version="1.0" encoding="UTF-8" standalone="no"?>
<!DOCTYPE svg PUBLIC "-//W3C//DTD SVG 20010904//EN"
              "http://www.w3.org/TR/2001/REC-SVG-20010904/DTD/svg10.dtd">

<svg xmlns="http://www.w3.org/2000/svg"
     width="2.77778in" height="13.3556in"
     viewBox="0 0 250 1202">
  <path id="Imported Path"
        fill="none" stroke="black" stroke-width="1"
        d="M 66.90,934.95
           C 51.06,920.28 35.80,897.98 31.10,880.96
             25.23,861.59 22.89,806.42 22.89,751.25
             22.89,699.60 25.23,649.13 29.93,630.93
             46.95,572.24 82.75,537.03 121.48,537.03
             126.17,537.03 132.04,538.20 136.74,539.37
             159.62,545.24 221.24,620.96 221.24,643.84
             221.24,643.84 221.24,646.19 221.24,646.19
             218.90,656.76 213.62,662.04 206.57,662.04
             196.01,662.04 178.99,650.30 160.80,625.06
             143.78,602.17 124.41,583.98 117.37,583.98
             109.15,583.98 96.83,598.07 86.27,620.96
             70.42,652.06 68.08,670.84 68.08,755.95
             68.08,869.22 80.40,905.02 120.31,909.72
             120.31,909.72 125.00,909.72 125.00,909.72
             149.06,909.72 183.69,885.65 199.53,858.07
             205.40,847.50 216.55,841.05 225.94,841.05
             234.15,841.05 242.96,846.33 244.13,855.72
             244.13,855.72 244.13,859.24 244.13,859.24
             244.13,878.61 212.44,920.28 182.51,940.82
             164.32,952.56 146.71,959.02 128.52,959.02
             106.81,959.02 86.27,950.80 66.90,934.95 Z" />
</svg>
