<?xml version="1.0" encoding="UTF-8" standalone="no"?>
<!DOCTYPE svg PUBLIC "-//W3C//DTD SVG 20010904//EN"
              "http://www.w3.org/TR/2001/REC-SVG-20010904/DTD/svg10.dtd">

<svg xmlns="http://www.w3.org/2000/svg"
     width="2.77778in" height="6.83333in"
     viewBox="0 0 250 615">
  <path id="Imported Path"
        fill="none" stroke="black" stroke-width="1"
        d="M 111.34,491.58
           C 108.04,488.28 106.24,465.75 106.24,424.91
             106.24,366.06 101.44,335.73 92.44,335.73
             83.43,335.73 71.13,345.04 65.43,356.45
             58.22,370.56 50.12,422.51 48.62,462.15
             47.72,489.18 47.12,490.38 36.61,490.38
             36.61,490.38 25.81,490.38 25.81,490.38
             25.81,490.38 24.61,416.21 24.61,416.21
             23.11,330.62 26.41,307.50 39.02,307.50
             45.02,307.50 48.02,310.80 48.92,319.21
             48.92,319.21 50.42,330.92 50.42,330.92
             50.42,330.92 63.93,322.51 63.93,322.51
             87.94,307.80 117.35,314.41 124.55,335.73
             126.05,339.63 130.25,338.43 141.06,331.82
             149.46,326.72 162.67,322.81 169.87,322.81
             196.58,322.81 206.18,348.04 206.48,415.91
             206.78,450.44 208.28,466.66 212.79,472.36
             226.29,490.08 206.18,500.59 190.88,483.47
             183.67,475.66 182.17,465.45 180.37,414.10
             179.17,377.77 176.17,351.64 173.17,348.64
             166.27,341.73 143.16,354.35 138.96,367.26
             137.15,372.66 134.75,402.09 133.55,432.72
             131.45,479.27 130.25,489.18 123.95,492.48
             119.15,494.88 114.65,494.88 111.34,491.58 Z" />
</svg>
