<?xml version="1.0" encoding="UTF-8" standalone="no"?>
<!DOCTYPE svg PUBLIC "-//W3C//DTD SVG 20010904//EN"
              "http://www.w3.org/TR/2001/REC-SVG-20010904/DTD/svg10.dtd">

<svg xmlns="http://www.w3.org/2000/svg"
     width="2.77778in" height="11.5444in"
     viewBox="0 0 250 1039">
  <path id="Imported Path"
        fill="none" stroke="black" stroke-width="1"
        d="M 139.96,546.90
           C 115.62,546.39 91.78,563.13 76.06,593.57
             63.89,616.40 52.23,709.24 58.32,732.58
             63.89,754.90 99.90,789.40 118.15,789.40
             125.76,789.40 140.47,782.80 150.10,774.68
             178.50,750.84 193.71,710.25 197.26,651.40
             200.81,586.97 197.77,575.31 172.41,558.06
             161.76,550.95 151.12,546.90 139.96,546.90 Z
           M 133.37,509.35
           C 156.19,508.34 177.99,515.95 193.71,530.66
             224.14,559.58 230.73,578.35 231.24,634.16
             231.74,708.22 216.02,753.88 177.48,793.96
             149.59,822.88 145.54,824.91 120.18,824.91
             98.38,824.91 87.22,820.85 66.94,805.63
             27.38,775.19 17.24,753.88 18.26,699.09
             20.28,604.22 44.62,544.87 92.29,520.51
             105.48,513.92 119.68,509.86 133.37,509.35 Z" />
</svg>
