<?xml version="1.0" encoding="UTF-8" standalone="no"?>
<!DOCTYPE svg PUBLIC "-//W3C//DTD SVG 20010904//EN"
              "http://www.w3.org/TR/2001/REC-SVG-20010904/DTD/svg10.dtd">

<svg xmlns="http://www.w3.org/2000/svg"
     width="2.77778in" height="8.61111in"
     viewBox="0 0 250 775">
  <path id="Imported Path"
        fill="none" stroke="black" stroke-width="1"
        d="M 108.17,403.02
           C 102.87,403.77 99.09,404.53 96.07,406.80
             85.10,413.61 77.53,457.89 77.53,516.92
             77.53,516.92 77.53,528.27 77.53,528.27
             77.53,557.03 80.18,564.60 89.64,575.57
             98.34,584.28 105.14,588.82 113.84,588.82
             121.41,588.82 130.11,584.66 142.59,577.09
             153.56,571.03 167.55,556.27 174.36,545.30
             181.92,532.06 185.70,515.03 185.70,496.48
             185.70,466.21 175.87,434.42 157.34,417.40
             147.13,408.69 126.32,403.02 110.82,403.02
             110.82,403.02 108.17,403.02 108.17,403.02 Z
           M 43.12,270.95
           C 54.08,270.95 55.98,277.38 61.27,323.17
             61.27,323.17 66.57,374.26 66.57,374.26
             66.57,374.26 114.60,374.26 114.60,374.26
             114.60,374.26 163.39,374.26 163.39,374.26
             163.39,374.26 185.70,399.61 185.70,399.61
             208.77,426.10 222.39,463.18 222.39,497.24
             222.39,514.27 218.99,529.79 212.18,543.03
             189.11,589.58 147.88,619.85 112.33,619.85
             103.63,619.85 94.93,617.58 87.37,613.79
             78.67,608.50 73.37,608.50 68.84,613.79
             64.30,617.58 57.87,619.85 51.82,619.85
             46.52,619.85 40.85,617.58 40.85,612.28
             40.85,608.50 38.58,550.22 36.31,483.62
             33.28,398.47 31.77,347.01 31.77,316.74
             31.77,273.22 34.42,270.95 43.12,270.95 Z" />
</svg>
