<svg xmlns="http://www.w3.org/2000/svg" viewBox="0 0 591 488" width="591" height="488">
  <path d="M 153 431 L 153 438 L 158 446 L 187 448 L 390 448 L 398 445 L 401 440 L 401 430 L 398 424 L 394 420 L 387 417 L 167 417 L 160 420 L 156 424 Z M 180 393 L 180 406 L 361 407 L 373 405 L 373 394 L 371 389 L 367 385 L 362 384 L 189 384 L 183 387 Z M 315 286 L 314 372 L 315 374 L 340 374 L 340 311 Z M 201 252 L 201 268 L 203 270 L 210 270 L 214 274 L 214 373 L 238 374 L 239 372 L 238 278 L 239 272 L 241 270 L 245 270 L 247 272 L 248 278 L 247 372 L 248 374 L 272 373 L 271 275 L 277 269 L 281 273 L 281 373 L 304 374 L 305 273 L 311 269 L 327 252 Z M 173 229 L 176 236 L 180 240 L 188 243 L 344 243 L 349 242 L 368 224 L 371 217 L 367 210 L 359 208 L 187 208 L 177 214 L 173 222 Z M 327 264 L 324 270 L 324 275 L 326 279 L 385 338 L 392 339 L 396 337 L 402 330 L 403 320 L 415 309 L 498 398 L 503 400 L 511 400 L 517 397 L 521 390 L 520 378 L 430 294 L 445 278 L 458 273 L 464 267 L 465 257 L 410 200 L 401 199 L 396 201 L 391 208 L 389 217 L 348 257 L 336 258 Z M 185 133 L 186 162 L 188 174 L 191 180 L 202 187 L 217 192 L 242 197 L 262 199 L 298 199 L 315 197 L 356 187 L 365 181 L 370 170 L 372 149 L 371 132 L 360 134 L 282 161 L 272 160 L 191 132 Z M 429 90 L 422 85 L 382 72 L 280 35 L 274 35 L 156 78 L 128 87 L 124 92 L 126 99 L 133 104 L 133 149 L 127 159 L 128 167 L 133 175 L 129 198 L 129 208 L 135 213 L 144 214 L 150 213 L 153 211 L 155 207 L 152 173 L 157 165 L 157 160 L 150 149 L 151 108 L 186 119 L 269 149 L 279 151 L 422 102 L 429 97 Z" fill="#000000" fill-rule="evenodd"/>
</svg>